<?xml version="1.0" encoding="UTF-8" standalone="no"?>
<!DOCTYPE svg PUBLIC "-//W3C//DTD SVG 1.1//EN" "http://www.w3.org/Graphics/SVG/1.1/DTD/svg11.dtd">
<svg width="855px" height="872px" version="1.1" xmlns="http://www.w3.org/2000/svg" xmlns:xlink="http://www.w3.org/1999/xlink" xml:space="preserve" xmlns:serif="http://www.serif.com/" style="fill-rule:evenodd;clip-rule:evenodd;stroke-miterlimit:10;">
    <g transform="matrix(1,0,0,1,-67.1152,-50.1074)">
        <g transform="matrix(1,0,0,1,-24.5778,-7.56988)">
            <g transform="matrix(0.486111,0,0,0.486111,19.066,57.1762)">
                <path d="M419.528,125.372L419.528,282.817C419.528,295.69 409.076,306.142 396.202,306.142L238.758,306.142C225.885,306.142 215.433,295.69 215.433,282.817L215.433,125.372C215.433,112.499 225.885,102.047 238.758,102.047L396.202,102.047C409.076,102.047 419.528,112.499 419.528,125.372Z" style="fill:white;stroke:black;stroke-width:4.02px;"/>
            </g>
            <g transform="matrix(0.486111,0,0,0.486111,217.491,57.1762)">
                <path d="M419.528,125.372L419.528,282.817C419.528,295.69 409.076,306.142 396.202,306.142L238.758,306.142C225.885,306.142 215.433,295.69 215.433,282.817L215.433,125.372C215.433,112.499 225.885,102.047 238.758,102.047L396.202,102.047C409.076,102.047 419.528,112.499 419.528,125.372Z" style="fill:white;stroke:black;stroke-width:4.02px;"/>
            </g>
            <g transform="matrix(0.486111,0,0,0.486111,316.704,156.389)">
                <path d="M419.528,125.372L419.528,282.817C419.528,295.69 409.076,306.142 396.202,306.142L238.758,306.142C225.885,306.142 215.433,295.69 215.433,282.817L215.433,125.372C215.433,112.499 225.885,102.047 238.758,102.047L396.202,102.047C409.076,102.047 419.528,112.499 419.528,125.372Z" style="fill:white;stroke:black;stroke-width:4.02px;"/>
            </g>
            <g transform="matrix(0.486111,0,0,0.486111,118.279,156.389)">
                <path d="M419.528,125.372L419.528,282.817C419.528,295.69 409.076,306.142 396.202,306.142L238.758,306.142C225.885,306.142 215.433,295.69 215.433,282.817L215.433,125.372C215.433,112.499 225.885,102.047 238.758,102.047L396.202,102.047C409.076,102.047 419.528,112.499 419.528,125.372Z" style="fill:white;stroke:black;stroke-width:4.02px;"/>
            </g>
            <g transform="matrix(0.486111,0,0,0.486111,415.916,57.1762)">
                <path d="M419.528,125.372L419.528,282.817C419.528,295.69 409.076,306.142 396.202,306.142L238.758,306.142C225.885,306.142 215.433,295.69 215.433,282.817L215.433,125.372C215.433,112.499 225.885,102.047 238.758,102.047L396.202,102.047C409.076,102.047 419.528,112.499 419.528,125.372Z" style="fill:white;stroke:black;stroke-width:4.02px;"/>
            </g>
            <g transform="matrix(0.486111,0,0,0.486111,614.342,57.1762)">
                <path d="M419.528,125.372L419.528,282.817C419.528,295.69 409.076,306.142 396.202,306.142L238.758,306.142C225.885,306.142 215.433,295.69 215.433,282.817L215.433,125.372C215.433,112.499 225.885,102.047 238.758,102.047L396.202,102.047C409.076,102.047 419.528,112.499 419.528,125.372Z" style="fill:white;stroke:black;stroke-width:4.02px;"/>
            </g>
            <g transform="matrix(0.486111,0,0,0.486111,713.554,156.389)">
                <path d="M419.528,125.372L419.528,282.817C419.528,295.69 409.076,306.142 396.202,306.142L238.758,306.142C225.885,306.142 215.433,295.69 215.433,282.817L215.433,125.372C215.433,112.499 225.885,102.047 238.758,102.047L396.202,102.047C409.076,102.047 419.528,112.499 419.528,125.372Z" style="fill:white;stroke:black;stroke-width:4.02px;"/>
            </g>
            <g transform="matrix(0.486111,0,0,0.486111,515.129,156.389)">
                <path d="M419.528,125.372L419.528,282.817C419.528,295.69 409.076,306.142 396.202,306.142L238.758,306.142C225.885,306.142 215.433,295.69 215.433,282.817L215.433,125.372C215.433,112.499 225.885,102.047 238.758,102.047L396.202,102.047C409.076,102.047 419.528,112.499 419.528,125.372Z" style="fill:white;stroke:black;stroke-width:4.02px;"/>
            </g>
            <g transform="matrix(0.486111,0,0,0.486111,19.066,255.601)">
                <path d="M419.528,125.372L419.528,282.817C419.528,295.69 409.076,306.142 396.202,306.142L238.758,306.142C225.885,306.142 215.433,295.69 215.433,282.817L215.433,125.372C215.433,112.499 225.885,102.047 238.758,102.047L396.202,102.047C409.076,102.047 419.528,112.499 419.528,125.372Z" style="fill:white;stroke:black;stroke-width:4.02px;"/>
            </g>
            <g transform="matrix(0.486111,0,0,0.486111,217.491,255.601)">
                <path d="M419.528,125.372L419.528,282.817C419.528,295.69 409.076,306.142 396.202,306.142L238.758,306.142C225.885,306.142 215.433,295.69 215.433,282.817L215.433,125.372C215.433,112.499 225.885,102.047 238.758,102.047L396.202,102.047C409.076,102.047 419.528,112.499 419.528,125.372Z" style="fill:white;stroke:black;stroke-width:4.02px;"/>
            </g>
            <g transform="matrix(0.486111,0,0,0.486111,316.704,354.814)">
                <path d="M419.528,125.372L419.528,282.817C419.528,295.69 409.076,306.142 396.202,306.142L238.758,306.142C225.885,306.142 215.433,295.69 215.433,282.817L215.433,125.372C215.433,112.499 225.885,102.047 238.758,102.047L396.202,102.047C409.076,102.047 419.528,112.499 419.528,125.372Z" style="fill:white;stroke:black;stroke-width:4.02px;"/>
            </g>
            <g transform="matrix(0.486111,0,0,0.486111,118.279,354.814)">
                <path d="M419.528,125.372L419.528,282.817C419.528,295.69 409.076,306.142 396.202,306.142L238.758,306.142C225.885,306.142 215.433,295.69 215.433,282.817L215.433,125.372C215.433,112.499 225.885,102.047 238.758,102.047L396.202,102.047C409.076,102.047 419.528,112.499 419.528,125.372Z" style="fill:white;stroke:black;stroke-width:4.02px;"/>
            </g>
            <g transform="matrix(0.486111,0,0,0.486111,415.916,255.601)">
                <path d="M419.528,125.372L419.528,282.817C419.528,295.69 409.076,306.142 396.202,306.142L238.758,306.142C225.885,306.142 215.433,295.69 215.433,282.817L215.433,125.372C215.433,112.499 225.885,102.047 238.758,102.047L396.202,102.047C409.076,102.047 419.528,112.499 419.528,125.372Z" style="fill:white;stroke:black;stroke-width:4.02px;"/>
            </g>
            <g transform="matrix(0.486111,0,0,0.486111,614.342,255.601)">
                <path d="M419.528,125.372L419.528,282.817C419.528,295.69 409.076,306.142 396.202,306.142L238.758,306.142C225.885,306.142 215.433,295.69 215.433,282.817L215.433,125.372C215.433,112.499 225.885,102.047 238.758,102.047L396.202,102.047C409.076,102.047 419.528,112.499 419.528,125.372Z" style="fill:white;stroke:black;stroke-width:4.02px;"/>
            </g>
            <g transform="matrix(0.486111,0,0,0.486111,713.554,354.814)">
                <path d="M419.528,125.372L419.528,282.817C419.528,295.69 409.076,306.142 396.202,306.142L238.758,306.142C225.885,306.142 215.433,295.69 215.433,282.817L215.433,125.372C215.433,112.499 225.885,102.047 238.758,102.047L396.202,102.047C409.076,102.047 419.528,112.499 419.528,125.372Z" style="fill:white;stroke:black;stroke-width:4.02px;"/>
            </g>
            <g transform="matrix(0.486111,0,0,0.486111,515.129,354.814)">
                <path d="M419.528,125.372L419.528,282.817C419.528,295.69 409.076,306.142 396.202,306.142L238.758,306.142C225.885,306.142 215.433,295.69 215.433,282.817L215.433,125.372C215.433,112.499 225.885,102.047 238.758,102.047L396.202,102.047C409.076,102.047 419.528,112.499 419.528,125.372Z" style="fill:white;stroke:black;stroke-width:4.02px;"/>
            </g>
            <g transform="matrix(0.486111,0,0,0.486111,19.066,454.027)">
                <path d="M419.528,125.372L419.528,282.817C419.528,295.69 409.076,306.142 396.202,306.142L238.758,306.142C225.885,306.142 215.433,295.69 215.433,282.817L215.433,125.372C215.433,112.499 225.885,102.047 238.758,102.047L396.202,102.047C409.076,102.047 419.528,112.499 419.528,125.372Z" style="fill:white;stroke:black;stroke-width:4.02px;"/>
            </g>
            <g transform="matrix(0.486111,0,0,0.486111,217.491,454.027)">
                <path d="M419.528,125.372L419.528,282.817C419.528,295.69 409.076,306.142 396.202,306.142L238.758,306.142C225.885,306.142 215.433,295.69 215.433,282.817L215.433,125.372C215.433,112.499 225.885,102.047 238.758,102.047L396.202,102.047C409.076,102.047 419.528,112.499 419.528,125.372Z" style="fill:white;stroke:black;stroke-width:4.02px;"/>
            </g>
            <g transform="matrix(0.486111,0,0,0.486111,316.704,553.239)">
                <path d="M419.528,125.372L419.528,282.817C419.528,295.69 409.076,306.142 396.202,306.142L238.758,306.142C225.885,306.142 215.433,295.69 215.433,282.817L215.433,125.372C215.433,112.499 225.885,102.047 238.758,102.047L396.202,102.047C409.076,102.047 419.528,112.499 419.528,125.372Z" style="fill:white;stroke:black;stroke-width:4.02px;"/>
            </g>
            <g transform="matrix(0.486111,0,0,0.486111,118.279,553.239)">
                <path d="M419.528,125.372L419.528,282.817C419.528,295.69 409.076,306.142 396.202,306.142L238.758,306.142C225.885,306.142 215.433,295.69 215.433,282.817L215.433,125.372C215.433,112.499 225.885,102.047 238.758,102.047L396.202,102.047C409.076,102.047 419.528,112.499 419.528,125.372Z" style="fill:white;stroke:black;stroke-width:4.02px;"/>
            </g>
            <g transform="matrix(0.486111,0,0,0.486111,415.916,454.027)">
                <path d="M419.528,125.372L419.528,282.817C419.528,295.69 409.076,306.142 396.202,306.142L238.758,306.142C225.885,306.142 215.433,295.69 215.433,282.817L215.433,125.372C215.433,112.499 225.885,102.047 238.758,102.047L396.202,102.047C409.076,102.047 419.528,112.499 419.528,125.372Z" style="fill:white;stroke:black;stroke-width:4.02px;"/>
            </g>
            <g transform="matrix(0.486111,0,0,0.486111,614.342,454.027)">
                <path d="M419.528,125.372L419.528,282.817C419.528,295.69 409.076,306.142 396.202,306.142L238.758,306.142C225.885,306.142 215.433,295.69 215.433,282.817L215.433,125.372C215.433,112.499 225.885,102.047 238.758,102.047L396.202,102.047C409.076,102.047 419.528,112.499 419.528,125.372Z" style="fill:white;stroke:black;stroke-width:4.02px;"/>
            </g>
            <g transform="matrix(0.486111,0,0,0.486111,19.066,652.452)">
                <path d="M419.528,125.372L419.528,282.817C419.528,295.69 409.076,306.142 396.202,306.142L238.758,306.142C225.885,306.142 215.433,295.69 215.433,282.817L215.433,125.372C215.433,112.499 225.885,102.047 238.758,102.047L396.202,102.047C409.076,102.047 419.528,112.499 419.528,125.372Z" style="fill:white;stroke:black;stroke-width:4.02px;"/>
            </g>
            <g transform="matrix(0.486111,0,0,0.486111,217.491,652.452)">
                <path d="M419.528,125.372L419.528,282.817C419.528,295.69 409.076,306.142 396.202,306.142L238.758,306.142C225.885,306.142 215.433,295.69 215.433,282.817L215.433,125.372C215.433,112.499 225.885,102.047 238.758,102.047L396.202,102.047C409.076,102.047 419.528,112.499 419.528,125.372Z" style="fill:white;stroke:black;stroke-width:4.02px;"/>
            </g>
            <g transform="matrix(0.486111,0,0,0.486111,415.916,652.452)">
                <path d="M419.528,125.372L419.528,282.817C419.528,295.69 409.076,306.142 396.202,306.142L238.758,306.142C225.885,306.142 215.433,295.69 215.433,282.817L215.433,125.372C215.433,112.499 225.885,102.047 238.758,102.047L396.202,102.047C409.076,102.047 419.528,112.499 419.528,125.372Z" style="fill:white;stroke:black;stroke-width:4.02px;"/>
            </g>
            <g transform="matrix(0.486111,0,0,0.486111,614.342,652.452)">
                <path d="M419.528,125.372L419.528,282.817C419.528,295.69 409.076,306.142 396.202,306.142L238.758,306.142C225.885,306.142 215.433,295.69 215.433,282.817L215.433,125.372C215.433,112.499 225.885,102.047 238.758,102.047L396.202,102.047C409.076,102.047 419.528,112.499 419.528,125.372Z" style="fill:white;stroke:black;stroke-width:4.02px;"/>
            </g>
            <g transform="matrix(0.486111,0,0,0.486111,713.554,553.239)">
                <path d="M419.528,125.372L419.528,282.817C419.528,295.69 409.076,306.142 396.202,306.142L238.758,306.142C225.885,306.142 215.433,295.69 215.433,282.817L215.433,125.372C215.433,112.499 225.885,102.047 238.758,102.047L396.202,102.047C409.076,102.047 419.528,112.499 419.528,125.372Z" style="fill:white;stroke:black;stroke-width:4.02px;"/>
            </g>
            <g transform="matrix(0.486111,0,0,0.486111,515.129,553.239)">
                <path d="M419.528,125.372L419.528,282.817C419.528,295.69 409.076,306.142 396.202,306.142L238.758,306.142C225.885,306.142 215.433,295.69 215.433,282.817L215.433,125.372C215.433,112.499 225.885,102.047 238.758,102.047L396.202,102.047C409.076,102.047 419.528,112.499 419.528,125.372Z" style="fill:white;stroke:black;stroke-width:4.02px;"/>
            </g>
            <g transform="matrix(0.486111,0,0,0.486111,316.704,751.664)">
                <path d="M419.528,125.372L419.528,282.817C419.528,295.69 409.076,306.142 396.202,306.142L238.758,306.142C225.885,306.142 215.433,295.69 215.433,282.817L215.433,125.372C215.433,112.499 225.885,102.047 238.758,102.047L396.202,102.047C409.076,102.047 419.528,112.499 419.528,125.372Z" style="fill:white;stroke:black;stroke-width:4.02px;"/>
            </g>
            <g transform="matrix(0.486111,0,0,0.486111,118.279,751.664)">
                <path d="M419.528,125.372L419.528,282.817C419.528,295.69 409.076,306.142 396.202,306.142L238.758,306.142C225.885,306.142 215.433,295.69 215.433,282.817L215.433,125.372C215.433,112.499 225.885,102.047 238.758,102.047L396.202,102.047C409.076,102.047 419.528,112.499 419.528,125.372Z" style="fill:white;stroke:black;stroke-width:4.02px;"/>
            </g>
            <g transform="matrix(0.486111,0,0,0.486111,713.554,751.664)">
                <path d="M419.528,125.372L419.528,282.817C419.528,295.69 409.076,306.142 396.202,306.142L238.758,306.142C225.885,306.142 215.433,295.69 215.433,282.817L215.433,125.372C215.433,112.499 225.885,102.047 238.758,102.047L396.202,102.047C409.076,102.047 419.528,112.499 419.528,125.372Z" style="fill:white;stroke:black;stroke-width:4.02px;"/>
            </g>
            <g transform="matrix(0.486111,0,0,0.486111,515.129,751.664)">
                <path d="M419.528,125.372L419.528,282.817C419.528,295.69 409.076,306.142 396.202,306.142L238.758,306.142C225.885,306.142 215.433,295.69 215.433,282.817L215.433,125.372C215.433,112.499 225.885,102.047 238.758,102.047L396.202,102.047C409.076,102.047 419.528,112.499 419.528,125.372Z" style="fill:white;stroke:black;stroke-width:4.02px;"/>
            </g>
        </g>
        <g transform="matrix(1,0,0,1,-24.5778,-7.56988)">
            <g transform="matrix(2.2388,0,0,6.25,-881.872,-5874.32)">
                <path d="M816.378,954.255L816.378,1086.69C816.378,1087.69 814.109,1088.5 811.313,1088.5L441.6,1088.5C438.804,1088.5 436.535,1087.69 436.535,1086.69L436.535,954.255C436.535,953.254 438.804,952.441 441.6,952.441L811.313,952.441C814.109,952.441 816.378,953.254 816.378,954.255Z" style="fill:none;stroke:rgb(0,23,255);stroke-width:0.2px;stroke-linecap:square;stroke-miterlimit:1;"/>
            </g>
        </g>
        <g transform="matrix(1,0,0,1,-24.5778,-7.56988)">
            <g transform="matrix(0.944882,0,0,0.944882,86.4676,59.4269)">
                <path d="M18.5,20.118L9.5,20.118L9.5,2.118L18.5,20.118Z" style="fill:rgb(255,0,0);fill-rule:nonzero;stroke:rgb(255,0,0);stroke-width:0.79px;"/>
            </g>
        </g>
    </g>
</svg>
