<?xml version="1.0" encoding="UTF-8" standalone="no"?>
<!DOCTYPE svg PUBLIC "-//W3C//DTD SVG 1.1//EN" "http://www.w3.org/Graphics/SVG/1.1/DTD/svg11.dtd">
<svg width="855px" height="645px" version="1.1" xmlns="http://www.w3.org/2000/svg" xmlns:xlink="http://www.w3.org/1999/xlink" xml:space="preserve" xmlns:serif="http://www.serif.com/" style="fill-rule:evenodd;clip-rule:evenodd;stroke-miterlimit:10;">
    <g transform="matrix(1,0,0,1,-67.1152,-50.1074)">
        <g transform="matrix(1,0,0,1,-24.5778,-7.56988)">
            <g transform="matrix(0.685714,0,0,0.685714,-49.123,-409.123)">
                <circle cx="347.244" cy="1041.73" r="49.606" style="fill:white;stroke:black;stroke-width:1.96px;"/>
            </g>
        </g>
        <g transform="matrix(1,0,0,1,-24.5778,-7.56988)">
            <g transform="matrix(0.571429,0,0,0.571429,427.097,-193.69)">
                <circle cx="347.244" cy="1041.73" r="49.606" style="fill:white;stroke:black;stroke-width:1.96px;"/>
            </g>
        </g>
        <g transform="matrix(1,0,0,1,-24.5778,-7.56988)">
            <g transform="matrix(0.685714,0,0,0.685714,84.1054,-462.981)">
                <circle cx="347.244" cy="1041.73" r="49.606" style="fill:white;stroke:black;stroke-width:1.96px;"/>
            </g>
        </g>
        <g transform="matrix(1,0,0,1,-24.5778,-7.56988)">
            <g transform="matrix(0.571429,0,0,0.571429,194.657,-119.989)">
                <circle cx="347.244" cy="1041.73" r="49.606" style="fill:white;stroke:black;stroke-width:1.96px;"/>
            </g>
        </g>
        <g transform="matrix(1,0,0,1,-24.5778,-7.56988)">
            <g transform="matrix(0.657143,0,0,0.657143,-3.76866,-253.218)">
                <circle cx="347.244" cy="1041.73" r="49.606" style="fill:white;stroke:black;stroke-width:1.96px;"/>
            </g>
        </g>
        <g transform="matrix(1,0,0,1,-24.5778,-7.56988)">
            <g transform="matrix(0.571429,0,0,0.571429,89.7747,-63.2963)">
                <circle cx="347.244" cy="1041.73" r="49.606" style="fill:white;stroke:black;stroke-width:1.96px;"/>
            </g>
        </g>
        <g transform="matrix(1,0,0,1,-24.5778,-7.56988)">
            <g transform="matrix(0.657143,0,0,0.657143,225.838,-511.17)">
                <circle cx="347.244" cy="1041.73" r="49.606" style="fill:white;stroke:black;stroke-width:1.96px;"/>
            </g>
        </g>
        <g transform="matrix(1,0,0,1,-24.5778,-7.56988)">
            <g transform="matrix(0.571429,0,0,0.571429,523.475,-88.8081)">
                <circle cx="347.244" cy="1041.73" r="49.606" style="fill:white;stroke:black;stroke-width:1.96px;"/>
            </g>
        </g>
        <g transform="matrix(1,0,0,1,-24.5778,-7.56988)">
            <g transform="matrix(0.657143,0,0,0.657143,156.389,-321.249)">
                <circle cx="347.244" cy="1041.73" r="49.606" style="fill:white;stroke:black;stroke-width:1.96px;"/>
            </g>
        </g>
        <g transform="matrix(1,0,0,1,-24.5778,-7.56988)">
            <g transform="matrix(0.571429,0,0,0.571429,240.011,16.0738)">
                <circle cx="347.244" cy="1041.73" r="49.606" style="fill:white;stroke:black;stroke-width:1.96px;"/>
            </g>
        </g>
        <g transform="matrix(1,0,0,1,-24.5778,-7.56988)">
            <g transform="matrix(0.657143,0,0,0.657143,418.796,-514.714)">
                <circle cx="347.244" cy="1041.73" r="49.606" style="fill:white;stroke:black;stroke-width:1.96px;"/>
            </g>
        </g>
        <g transform="matrix(1,0,0,1,-24.5778,-7.56988)">
            <g transform="matrix(0.571429,0,0,0.571429,328.29,-88.8081)">
                <circle cx="347.244" cy="1041.73" r="49.606" style="fill:white;stroke:black;stroke-width:1.96px;"/>
            </g>
        </g>
        <g transform="matrix(1,0,0,1,-24.5778,-7.56988)">
            <g transform="matrix(0.657143,0,0,0.657143,344.893,-397.784)">
                <circle cx="347.244" cy="1041.73" r="49.606" style="fill:white;stroke:black;stroke-width:1.96px;"/>
            </g>
        </g>
        <g transform="matrix(1,0,0,1,-24.5778,-7.56988)">
            <g transform="matrix(0.571429,0,0,0.571429,421.428,18.9085)">
                <circle cx="347.244" cy="1041.73" r="49.606" style="fill:white;stroke:black;stroke-width:1.96px;"/>
            </g>
        </g>
        <g transform="matrix(1,0,0,1,-24.5778,-7.56988)">
            <g transform="matrix(0.657143,0,0,0.657143,556.074,-390.698)">
                <circle cx="347.244" cy="1041.73" r="49.606" style="fill:white;stroke:black;stroke-width:1.96px;"/>
            </g>
        </g>
        <g transform="matrix(1,0,0,1,-24.5778,-7.56988)">
            <g transform="matrix(0.571429,0,0,0.571429,648.2,-148.336)">
                <circle cx="347.244" cy="1041.73" r="49.606" style="fill:white;stroke:black;stroke-width:1.96px;"/>
            </g>
        </g>
        <g transform="matrix(1,0,0,1,-24.5778,-7.56988)">
            <g transform="matrix(2.2388,0,0,4.58333,-881.872,-4286.92)">
                <path d="M816.378,954.915L816.378,1086.03C816.378,1087.39 814.109,1088.5 811.313,1088.5L441.6,1088.5C438.804,1088.5 436.535,1087.39 436.535,1086.03L436.535,954.915C436.535,953.55 438.804,952.441 441.6,952.441L811.313,952.441C814.109,952.441 816.378,953.55 816.378,954.915Z" style="fill:none;stroke:rgb(0,23,255);stroke-width:0.2px;stroke-linecap:square;stroke-miterlimit:1;"/>
            </g>
        </g>
        <g transform="matrix(1,0,0,1,-24.5778,-7.56988)">
            <g transform="matrix(0.944882,0,0,0.944882,86.4676,59.4269)">
                <path d="M18.5,20.118L9.5,20.118L9.5,2.118L18.5,20.118Z" style="fill:rgb(255,0,0);fill-rule:nonzero;stroke:rgb(255,0,0);stroke-width:0.79px;"/>
            </g>
        </g>
    </g>
</svg>
